<svg xmlns="http://www.w3.org/2000/svg" width="1280" height="2170" viewBox="0 0 1280 2170">
<rect width="1280" height="2170" fill="#f5f2ea"/>
<text x="64" y="64" font-family="Segoe UI, Arial" font-size="34" font-weight="bold" fill="#2d2a24">Supangle — Tileset Taslağı (128×128)</text>
<text x="64" y="104" font-family="Segoe UI, Arial" font-size="19" fill="#55504a">Her kare = 128×128 px. Bu sadece yerleşim şablonudur; renk ve detay tamamen serbest.</text>
<text x="64" y="132" font-family="Segoe UI, Arial" font-size="19" fill="#55504a">Kenar bantları tile'ın hangi yöne 'kenar' olduğunu gösterir. Bulut bölümündeki delik tile'ı uçulamayan boşluktur.</text>
<text x="64" y="182" font-family="Segoe UI, Arial" font-size="26" font-weight="bold" fill="#2d2a24">1. ÇİMEN</text>
<rect x="64" y="200" width="128" height="128" fill="#6fae4e" stroke="#333333" stroke-opacity="0.5" stroke-width="2"/>
<rect x="64" y="200" width="128" height="24" fill="#000000" fill-opacity="0.28"/>
<rect x="64" y="200" width="24" height="128" fill="#000000" fill-opacity="0.28"/>
<rect x="192" y="200" width="128" height="128" fill="#6fae4e" stroke="#333333" stroke-opacity="0.5" stroke-width="2"/>
<rect x="192" y="200" width="128" height="24" fill="#000000" fill-opacity="0.28"/>
<rect x="320" y="200" width="128" height="128" fill="#6fae4e" stroke="#333333" stroke-opacity="0.5" stroke-width="2"/>
<rect x="320" y="200" width="128" height="24" fill="#000000" fill-opacity="0.28"/>
<rect x="424" y="200" width="24" height="128" fill="#000000" fill-opacity="0.28"/>
<rect x="64" y="328" width="128" height="128" fill="#6fae4e" stroke="#333333" stroke-opacity="0.5" stroke-width="2"/>
<rect x="64" y="328" width="24" height="128" fill="#000000" fill-opacity="0.28"/>
<rect x="192" y="328" width="128" height="128" fill="#6fae4e" stroke="#333333" stroke-opacity="0.5" stroke-width="2"/>
<rect x="320" y="328" width="128" height="128" fill="#6fae4e" stroke="#333333" stroke-opacity="0.5" stroke-width="2"/>
<rect x="424" y="328" width="24" height="128" fill="#000000" fill-opacity="0.28"/>
<rect x="64" y="456" width="128" height="128" fill="#6fae4e" stroke="#333333" stroke-opacity="0.5" stroke-width="2"/>
<rect x="64" y="560" width="128" height="24" fill="#000000" fill-opacity="0.28"/>
<rect x="64" y="456" width="24" height="128" fill="#000000" fill-opacity="0.28"/>
<rect x="192" y="456" width="128" height="128" fill="#6fae4e" stroke="#333333" stroke-opacity="0.5" stroke-width="2"/>
<rect x="192" y="560" width="128" height="24" fill="#000000" fill-opacity="0.28"/>
<rect x="320" y="456" width="128" height="128" fill="#6fae4e" stroke="#333333" stroke-opacity="0.5" stroke-width="2"/>
<rect x="320" y="560" width="128" height="24" fill="#000000" fill-opacity="0.28"/>
<rect x="424" y="456" width="24" height="128" fill="#000000" fill-opacity="0.28"/>
<rect x="576" y="200" width="128" height="128" fill="#6fae4e" stroke="#333333" stroke-opacity="0.5" stroke-width="2"/>
<rect x="576" y="200" width="44" height="44" fill="#000000" fill-opacity="0.28"/>
<rect x="704" y="200" width="128" height="128" fill="#6fae4e" stroke="#333333" stroke-opacity="0.5" stroke-width="2"/>
<rect x="788" y="200" width="44" height="44" fill="#000000" fill-opacity="0.28"/>
<rect x="576" y="328" width="128" height="128" fill="#6fae4e" stroke="#333333" stroke-opacity="0.5" stroke-width="2"/>
<rect x="576" y="412" width="44" height="44" fill="#000000" fill-opacity="0.28"/>
<rect x="704" y="328" width="128" height="128" fill="#6fae4e" stroke="#333333" stroke-opacity="0.5" stroke-width="2"/>
<rect x="788" y="412" width="44" height="44" fill="#000000" fill-opacity="0.28"/>
<rect x="960" y="200" width="128" height="128" fill="#6fae4e" stroke="#333333" stroke-opacity="0.5" stroke-width="2"/>
<rect x="994" y="240" width="18" height="18" fill="#000000" fill-opacity="0.28"/>
<rect x="1034" y="266" width="14" height="14" fill="#000000" fill-opacity="0.28"/>
<rect x="1008" y="288" width="12" height="12" fill="#000000" fill-opacity="0.28"/>
<rect x="1088" y="200" width="128" height="128" fill="#6fae4e" stroke="#333333" stroke-opacity="0.5" stroke-width="2"/>
<rect x="1118" y="258" width="28" height="10" fill="#000000" fill-opacity="0.28"/>
<rect x="1158" y="284" width="24" height="10" fill="#000000" fill-opacity="0.28"/>
<rect x="1146" y="234" width="20" height="10" fill="#000000" fill-opacity="0.28"/>
<text x="64" y="612" font-family="Segoe UI, Arial" font-size="18" fill="#55504a">3×3 kenar bloğu (dış köşe / kenar / orta)</text>
<text x="576" y="484" font-family="Segoe UI, Arial" font-size="18" fill="#55504a">iç köşeler</text>
<text x="960" y="356" font-family="Segoe UI, Arial" font-size="18" fill="#55504a">varyasyonlar (orta tile çeşidi)</text>
<text x="64" y="674" font-family="Segoe UI, Arial" font-size="26" font-weight="bold" fill="#2d2a24">2. TOPRAK</text>
<rect x="64" y="692" width="128" height="128" fill="#a9743f" stroke="#333333" stroke-opacity="0.5" stroke-width="2"/>
<rect x="64" y="692" width="128" height="24" fill="#000000" fill-opacity="0.28"/>
<rect x="64" y="692" width="24" height="128" fill="#000000" fill-opacity="0.28"/>
<rect x="192" y="692" width="128" height="128" fill="#a9743f" stroke="#333333" stroke-opacity="0.5" stroke-width="2"/>
<rect x="192" y="692" width="128" height="24" fill="#000000" fill-opacity="0.28"/>
<rect x="320" y="692" width="128" height="128" fill="#a9743f" stroke="#333333" stroke-opacity="0.5" stroke-width="2"/>
<rect x="320" y="692" width="128" height="24" fill="#000000" fill-opacity="0.28"/>
<rect x="424" y="692" width="24" height="128" fill="#000000" fill-opacity="0.28"/>
<rect x="64" y="820" width="128" height="128" fill="#a9743f" stroke="#333333" stroke-opacity="0.5" stroke-width="2"/>
<rect x="64" y="820" width="24" height="128" fill="#000000" fill-opacity="0.28"/>
<rect x="192" y="820" width="128" height="128" fill="#a9743f" stroke="#333333" stroke-opacity="0.5" stroke-width="2"/>
<rect x="320" y="820" width="128" height="128" fill="#a9743f" stroke="#333333" stroke-opacity="0.5" stroke-width="2"/>
<rect x="424" y="820" width="24" height="128" fill="#000000" fill-opacity="0.28"/>
<rect x="64" y="948" width="128" height="128" fill="#a9743f" stroke="#333333" stroke-opacity="0.5" stroke-width="2"/>
<rect x="64" y="1052" width="128" height="24" fill="#000000" fill-opacity="0.28"/>
<rect x="64" y="948" width="24" height="128" fill="#000000" fill-opacity="0.28"/>
<rect x="192" y="948" width="128" height="128" fill="#a9743f" stroke="#333333" stroke-opacity="0.5" stroke-width="2"/>
<rect x="192" y="1052" width="128" height="24" fill="#000000" fill-opacity="0.28"/>
<rect x="320" y="948" width="128" height="128" fill="#a9743f" stroke="#333333" stroke-opacity="0.5" stroke-width="2"/>
<rect x="320" y="1052" width="128" height="24" fill="#000000" fill-opacity="0.28"/>
<rect x="424" y="948" width="24" height="128" fill="#000000" fill-opacity="0.28"/>
<rect x="576" y="692" width="128" height="128" fill="#a9743f" stroke="#333333" stroke-opacity="0.5" stroke-width="2"/>
<rect x="576" y="692" width="44" height="44" fill="#000000" fill-opacity="0.28"/>
<rect x="704" y="692" width="128" height="128" fill="#a9743f" stroke="#333333" stroke-opacity="0.5" stroke-width="2"/>
<rect x="788" y="692" width="44" height="44" fill="#000000" fill-opacity="0.28"/>
<rect x="576" y="820" width="128" height="128" fill="#a9743f" stroke="#333333" stroke-opacity="0.5" stroke-width="2"/>
<rect x="576" y="904" width="44" height="44" fill="#000000" fill-opacity="0.28"/>
<rect x="704" y="820" width="128" height="128" fill="#a9743f" stroke="#333333" stroke-opacity="0.5" stroke-width="2"/>
<rect x="788" y="904" width="44" height="44" fill="#000000" fill-opacity="0.28"/>
<rect x="960" y="692" width="128" height="128" fill="#a9743f" stroke="#333333" stroke-opacity="0.5" stroke-width="2"/>
<rect x="994" y="732" width="18" height="18" fill="#000000" fill-opacity="0.28"/>
<rect x="1034" y="758" width="14" height="14" fill="#000000" fill-opacity="0.28"/>
<rect x="1008" y="780" width="12" height="12" fill="#000000" fill-opacity="0.28"/>
<rect x="1088" y="692" width="128" height="128" fill="#a9743f" stroke="#333333" stroke-opacity="0.5" stroke-width="2"/>
<rect x="1118" y="750" width="28" height="10" fill="#000000" fill-opacity="0.28"/>
<rect x="1158" y="776" width="24" height="10" fill="#000000" fill-opacity="0.28"/>
<rect x="1146" y="726" width="20" height="10" fill="#000000" fill-opacity="0.28"/>
<text x="64" y="1104" font-family="Segoe UI, Arial" font-size="18" fill="#55504a">3×3 kenar bloğu (dış köşe / kenar / orta)</text>
<text x="576" y="976" font-family="Segoe UI, Arial" font-size="18" fill="#55504a">iç köşeler</text>
<text x="960" y="848" font-family="Segoe UI, Arial" font-size="18" fill="#55504a">varyasyonlar (orta tile çeşidi)</text>
<text x="64" y="1166" font-family="Segoe UI, Arial" font-size="26" font-weight="bold" fill="#2d2a24">3. MERMER</text>
<rect x="64" y="1184" width="128" height="128" fill="#cfcbc4" stroke="#333333" stroke-opacity="0.5" stroke-width="2"/>
<rect x="64" y="1184" width="128" height="24" fill="#000000" fill-opacity="0.28"/>
<rect x="64" y="1184" width="24" height="128" fill="#000000" fill-opacity="0.28"/>
<rect x="192" y="1184" width="128" height="128" fill="#cfcbc4" stroke="#333333" stroke-opacity="0.5" stroke-width="2"/>
<rect x="192" y="1184" width="128" height="24" fill="#000000" fill-opacity="0.28"/>
<rect x="320" y="1184" width="128" height="128" fill="#cfcbc4" stroke="#333333" stroke-opacity="0.5" stroke-width="2"/>
<rect x="320" y="1184" width="128" height="24" fill="#000000" fill-opacity="0.28"/>
<rect x="424" y="1184" width="24" height="128" fill="#000000" fill-opacity="0.28"/>
<rect x="64" y="1312" width="128" height="128" fill="#cfcbc4" stroke="#333333" stroke-opacity="0.5" stroke-width="2"/>
<rect x="64" y="1312" width="24" height="128" fill="#000000" fill-opacity="0.28"/>
<rect x="192" y="1312" width="128" height="128" fill="#cfcbc4" stroke="#333333" stroke-opacity="0.5" stroke-width="2"/>
<rect x="320" y="1312" width="128" height="128" fill="#cfcbc4" stroke="#333333" stroke-opacity="0.5" stroke-width="2"/>
<rect x="424" y="1312" width="24" height="128" fill="#000000" fill-opacity="0.28"/>
<rect x="64" y="1440" width="128" height="128" fill="#cfcbc4" stroke="#333333" stroke-opacity="0.5" stroke-width="2"/>
<rect x="64" y="1544" width="128" height="24" fill="#000000" fill-opacity="0.28"/>
<rect x="64" y="1440" width="24" height="128" fill="#000000" fill-opacity="0.28"/>
<rect x="192" y="1440" width="128" height="128" fill="#cfcbc4" stroke="#333333" stroke-opacity="0.5" stroke-width="2"/>
<rect x="192" y="1544" width="128" height="24" fill="#000000" fill-opacity="0.28"/>
<rect x="320" y="1440" width="128" height="128" fill="#cfcbc4" stroke="#333333" stroke-opacity="0.5" stroke-width="2"/>
<rect x="320" y="1544" width="128" height="24" fill="#000000" fill-opacity="0.28"/>
<rect x="424" y="1440" width="24" height="128" fill="#000000" fill-opacity="0.28"/>
<rect x="576" y="1184" width="128" height="128" fill="#cfcbc4" stroke="#333333" stroke-opacity="0.5" stroke-width="2"/>
<rect x="576" y="1184" width="44" height="44" fill="#000000" fill-opacity="0.28"/>
<rect x="704" y="1184" width="128" height="128" fill="#cfcbc4" stroke="#333333" stroke-opacity="0.5" stroke-width="2"/>
<rect x="788" y="1184" width="44" height="44" fill="#000000" fill-opacity="0.28"/>
<rect x="576" y="1312" width="128" height="128" fill="#cfcbc4" stroke="#333333" stroke-opacity="0.5" stroke-width="2"/>
<rect x="576" y="1396" width="44" height="44" fill="#000000" fill-opacity="0.28"/>
<rect x="704" y="1312" width="128" height="128" fill="#cfcbc4" stroke="#333333" stroke-opacity="0.5" stroke-width="2"/>
<rect x="788" y="1396" width="44" height="44" fill="#000000" fill-opacity="0.28"/>
<rect x="960" y="1184" width="128" height="128" fill="#cfcbc4" stroke="#333333" stroke-opacity="0.5" stroke-width="2"/>
<rect x="994" y="1224" width="18" height="18" fill="#000000" fill-opacity="0.28"/>
<rect x="1034" y="1250" width="14" height="14" fill="#000000" fill-opacity="0.28"/>
<rect x="1008" y="1272" width="12" height="12" fill="#000000" fill-opacity="0.28"/>
<rect x="1088" y="1184" width="128" height="128" fill="#cfcbc4" stroke="#333333" stroke-opacity="0.5" stroke-width="2"/>
<rect x="1118" y="1242" width="28" height="10" fill="#000000" fill-opacity="0.28"/>
<rect x="1158" y="1268" width="24" height="10" fill="#000000" fill-opacity="0.28"/>
<rect x="1146" y="1218" width="20" height="10" fill="#000000" fill-opacity="0.28"/>
<text x="64" y="1596" font-family="Segoe UI, Arial" font-size="18" fill="#55504a">3×3 kenar bloğu (dış köşe / kenar / orta)</text>
<text x="576" y="1468" font-family="Segoe UI, Arial" font-size="18" fill="#55504a">iç köşeler</text>
<text x="960" y="1340" font-family="Segoe UI, Arial" font-size="18" fill="#55504a">varyasyonlar (orta tile çeşidi)</text>
<text x="64" y="1658" font-family="Segoe UI, Arial" font-size="26" font-weight="bold" fill="#2d2a24">4. BULUT</text>
<rect x="64" y="1676" width="128" height="128" fill="#e9f0f8" stroke="#333333" stroke-opacity="0.5" stroke-width="2"/>
<rect x="64" y="1676" width="128" height="24" fill="#000000" fill-opacity="0.28"/>
<rect x="64" y="1676" width="24" height="128" fill="#000000" fill-opacity="0.28"/>
<rect x="192" y="1676" width="128" height="128" fill="#e9f0f8" stroke="#333333" stroke-opacity="0.5" stroke-width="2"/>
<rect x="192" y="1676" width="128" height="24" fill="#000000" fill-opacity="0.28"/>
<rect x="320" y="1676" width="128" height="128" fill="#e9f0f8" stroke="#333333" stroke-opacity="0.5" stroke-width="2"/>
<rect x="320" y="1676" width="128" height="24" fill="#000000" fill-opacity="0.28"/>
<rect x="424" y="1676" width="24" height="128" fill="#000000" fill-opacity="0.28"/>
<rect x="64" y="1804" width="128" height="128" fill="#e9f0f8" stroke="#333333" stroke-opacity="0.5" stroke-width="2"/>
<rect x="64" y="1804" width="24" height="128" fill="#000000" fill-opacity="0.28"/>
<rect x="192" y="1804" width="128" height="128" fill="#e9f0f8" stroke="#333333" stroke-opacity="0.5" stroke-width="2"/>
<rect x="320" y="1804" width="128" height="128" fill="#e9f0f8" stroke="#333333" stroke-opacity="0.5" stroke-width="2"/>
<rect x="424" y="1804" width="24" height="128" fill="#000000" fill-opacity="0.28"/>
<rect x="64" y="1932" width="128" height="128" fill="#e9f0f8" stroke="#333333" stroke-opacity="0.5" stroke-width="2"/>
<rect x="64" y="2036" width="128" height="24" fill="#000000" fill-opacity="0.28"/>
<rect x="64" y="1932" width="24" height="128" fill="#000000" fill-opacity="0.28"/>
<rect x="192" y="1932" width="128" height="128" fill="#e9f0f8" stroke="#333333" stroke-opacity="0.5" stroke-width="2"/>
<rect x="192" y="2036" width="128" height="24" fill="#000000" fill-opacity="0.28"/>
<rect x="320" y="1932" width="128" height="128" fill="#e9f0f8" stroke="#333333" stroke-opacity="0.5" stroke-width="2"/>
<rect x="320" y="2036" width="128" height="24" fill="#000000" fill-opacity="0.28"/>
<rect x="424" y="1932" width="24" height="128" fill="#000000" fill-opacity="0.28"/>
<rect x="576" y="1676" width="128" height="128" fill="#e9f0f8" stroke="#333333" stroke-opacity="0.5" stroke-width="2"/>
<rect x="576" y="1676" width="44" height="44" fill="#000000" fill-opacity="0.28"/>
<rect x="704" y="1676" width="128" height="128" fill="#e9f0f8" stroke="#333333" stroke-opacity="0.5" stroke-width="2"/>
<rect x="788" y="1676" width="44" height="44" fill="#000000" fill-opacity="0.28"/>
<rect x="576" y="1804" width="128" height="128" fill="#e9f0f8" stroke="#333333" stroke-opacity="0.5" stroke-width="2"/>
<rect x="576" y="1888" width="44" height="44" fill="#000000" fill-opacity="0.28"/>
<rect x="704" y="1804" width="128" height="128" fill="#e9f0f8" stroke="#333333" stroke-opacity="0.5" stroke-width="2"/>
<rect x="788" y="1888" width="44" height="44" fill="#000000" fill-opacity="0.28"/>
<rect x="960" y="1676" width="128" height="128" fill="#e9f0f8" stroke="#333333" stroke-opacity="0.5" stroke-width="2"/>
<rect x="994" y="1716" width="18" height="18" fill="#000000" fill-opacity="0.28"/>
<rect x="1034" y="1742" width="14" height="14" fill="#000000" fill-opacity="0.28"/>
<rect x="1008" y="1764" width="12" height="12" fill="#000000" fill-opacity="0.28"/>
<rect x="1088" y="1676" width="128" height="128" fill="#e9f0f8" stroke="#333333" stroke-opacity="0.5" stroke-width="2"/>
<rect x="1118" y="1734" width="28" height="10" fill="#000000" fill-opacity="0.28"/>
<rect x="1158" y="1760" width="24" height="10" fill="#000000" fill-opacity="0.28"/>
<rect x="1146" y="1710" width="20" height="10" fill="#000000" fill-opacity="0.28"/>
<rect x="960" y="1868" width="128" height="128" fill="#8fc1ea" stroke="#333333" stroke-opacity="0.5" stroke-width="2" stroke-dasharray="8 6"/>
<text x="960" y="2024" font-family="Segoe UI, Arial" font-size="18" fill="#55504a">boşluk / delik (tehlike)</text>
<text x="64" y="2088" font-family="Segoe UI, Arial" font-size="18" fill="#55504a">3×3 kenar bloğu (dış köşe / kenar / orta)</text>
<text x="576" y="1960" font-family="Segoe UI, Arial" font-size="18" fill="#55504a">iç köşeler</text>
<text x="960" y="1832" font-family="Segoe UI, Arial" font-size="18" fill="#55504a">varyasyonlar (orta tile çeşidi)</text>
<text x="64" y="2146" font-family="Segoe UI, Arial" font-size="17" fill="#7a746c">Not: Kenar tile'ları zemin geçişlerinde (ör. çimen→toprak) kullanılacak. Gerekirse varyasyon sayısı artırılabilir.</text>
</svg>
